<svg width="40" height="42" viewBox="0 0 40 42" fill="none" xmlns="http://www.w3.org/2000/svg">
<path fill-rule="evenodd" clip-rule="evenodd" d="M6 22.75C8.89949 22.75 11.25 25.1004 11.25 28V36.75C11.25 39.6496 8.89949 42 6 42C3.10051 42 0.75 39.6496 0.75 36.75V28C0.75 25.1004 3.10051 22.75 6 22.75ZM20 0C22.8996 0 25.25 2.35051 25.25 5.25V36.75C25.25 39.6496 22.8996 42 20 42C17.1004 42 14.75 39.6496 14.75 36.75V5.25C14.75 2.35051 17.1004 0 20 0ZM34 12.25C36.8996 12.25 39.25 14.6005 39.25 17.5V36.75C39.25 39.6496 36.8996 42 34 42C31.1004 42 28.75 39.6496 28.75 36.75V17.5C28.75 14.6005 31.1004 12.25 34 12.25Z" fill="#FF7C40"/>
</svg>
