<svg width="48" height="36" viewBox="0 0 48 36" fill="none" xmlns="http://www.w3.org/2000/svg">
<path d="M0.491623 31.9751C5.47496 23.6334 17.825 15.2917 24.5416 14.4251C24.9073 14.3697 25.2812 14.4089 25.6275 14.5389C25.9738 14.6689 26.281 14.8854 26.5199 15.1678C26.7589 15.4501 26.9215 15.789 26.9924 16.152C27.0633 16.5151 27.0401 16.8902 26.925 17.2417C26.7829 17.6268 26.5344 17.9636 26.2083 18.2129C25.8823 18.4623 25.4921 18.6139 25.0833 18.6501C22.05 19.1917 16.85 21.9001 12.1916 25.5834C16.0916 29.2667 21.9416 30.8917 26.7083 29.4834C35.05 27.1001 39.275 16.3751 42.3083 7.49172L34.075 6.30005C26.925 5.00005 20.75 3.91672 16.6333 6.73339C12.5166 9.55006 12.3 12.1501 11.65 15.7251L8.83329 17.6751C8.66502 17.8031 8.46297 17.879 8.25205 17.8936C8.04113 17.9082 7.83056 17.8607 7.64629 17.757C7.46202 17.6534 7.31211 17.4981 7.21503 17.3103C7.11795 17.1224 7.07795 16.9103 7.09996 16.7001C7.74996 11.6084 9.37496 6.51672 14.1416 3.26672C18.9083 0.0167205 27.0333 0.666721 34.8333 1.96672C38.3043 2.64859 41.8135 3.1189 45.3416 3.37505H46.75C46.9243 3.35628 47.1004 3.38487 47.2599 3.4578C47.4193 3.53073 47.5562 3.64531 47.656 3.78947C47.7558 3.93363 47.8149 4.10204 47.827 4.27695C47.8391 4.45187 47.8039 4.62682 47.725 4.78339L47.2916 6.08339C43.9333 16.2667 39.275 30.2417 28.0083 33.6001C26.4186 34.0287 24.7797 34.2472 23.1333 34.2501C17.8137 34.205 12.707 32.1545 8.83329 28.5084C7.06288 30.2349 5.49957 32.1618 4.17496 34.2501C3.99653 34.5819 3.73045 34.8584 3.4057 35.0494C3.08096 35.2404 2.71001 35.3387 2.33329 35.3334C1.82986 35.3413 1.33685 35.1896 0.924957 34.9001C0.516068 34.5441 0.24773 34.0538 0.168282 33.5176C0.0888367 32.9813 0.203499 32.4343 0.491623 31.9751Z" fill="#FF7C40"/>
</svg>
