<svg width="58" height="49" viewBox="0 0 58 49" fill="none" xmlns="http://www.w3.org/2000/svg">
<path d="M13.8656 22.961H22.339V30.0297H13.8656V22.961ZM13.8656 39.4321H22.339V32.3633H13.8656V39.4321ZM13.8656 48.8118H22.339V41.743H13.8656V48.8118ZM24.8539 39.4321H33.3047V32.3633H24.8312V39.4321H24.8539ZM24.8539 48.8118H33.3047V41.743H24.8312V48.8118H24.8539ZM35.8422 41.743V48.8118H44.3156V41.743H35.8422ZM57.7734 14.1704L29.0679 0.667236L0.385132 14.2157L2.17498 17.954L5.82263 16.2094V48.8344H9.94607V16.0735H48.2351V48.8797H52.3586V16.2547L56.0062 17.954L57.7734 14.1704Z" fill="#FF7C40"/>
</svg>
