<svg width="39" height="44" viewBox="0 0 39 44" fill="none" xmlns="http://www.w3.org/2000/svg">
<path d="M27.2768 0.866943L14.5415 2.69481L16.6248 6.20717C18.9284 6.06521 20.8007 7.07667 21.6223 8.49818C22.0671 9.2676 22.1817 10.2508 21.7065 11.0587C21.3951 11.5879 20.8696 11.9736 20.2017 12.2351L21.7655 14.8657L26.0388 14.2368L26.5834 14.1582L26.8727 14.6242C28.2202 16.7786 29.9666 17.4626 30.6489 17.3532C30.9901 17.2986 31.0893 17.2256 31.1655 16.8648C31.2417 16.5038 31.1565 15.755 30.5899 14.7058L30.02 13.6529L31.2077 13.4788L34.4111 13.0071L27.2769 0.866943H27.2768ZM12.8992 2.93065L4.77099 4.09593L4.97044 4.43554L15.103 21.7249L23.2087 20.5877L18.197 12.1453L17.554 11.0645L18.7978 10.8848C19.743 10.7489 20.1302 10.4297 20.2605 10.2081C20.391 9.98644 20.3939 9.73147 20.168 9.34056C19.716 8.55874 18.2546 7.632 16.2878 7.91429L15.7319 7.9956L15.4455 7.51269L12.77 3.00648L12.8991 2.93065H12.8992ZM4.55761 7.05502L2.4098 15.5817L5.2539 20.3716L5.45874 20.7141L5.31858 21.0903C4.58744 23.0675 5.1026 25.3548 5.89125 26.5652C6.28548 27.1704 6.73102 27.4187 6.85707 27.43C6.91996 27.4355 6.93137 27.4434 7.02831 27.3626C7.12534 27.2817 7.2858 27.0789 7.4353 26.6971L8.05585 25.1166L8.9347 26.5681L12.5593 32.54L21.0579 31.2905L23.304 22.2696L14.7773 23.4656L14.2214 23.5442L13.9378 23.0584L4.55761 7.05502ZM35.3291 14.5682L32.5466 14.9783C32.8494 15.7985 32.9489 16.5421 32.8079 17.2103C32.6077 18.1582 31.8113 18.8663 30.9155 19.0099C29.2399 19.2785 27.3101 18.19 25.7693 15.975L22.692 16.4297L25.1906 20.6355L25.3676 20.9331L25.2833 21.2673L22.8548 31.0265L26.0078 30.563C26.7179 27.8018 28.4331 26.257 30.208 26.1943C31.1585 26.1608 32.0943 26.5986 32.6675 27.4017C33.0666 27.9609 33.2784 28.6771 33.3076 29.4905L35.5902 29.1536L38.03 19.4703L36.0254 15.7558L35.3291 14.5681V14.5682ZM1.8286 17.8896L0.113037 24.6926L9.34448 40.373L11.105 33.385L8.18505 28.5698C8.15693 28.5957 8.13294 28.6268 8.10365 28.6512C7.71121 28.9784 7.18868 29.1438 6.70532 29.1004C5.7386 29.0139 5.03719 28.3289 4.48438 27.4805C3.43681 25.8725 2.86989 23.3639 3.6226 20.9135L1.82842 17.8897L1.8286 17.8896ZM30.2668 27.8735C29.3954 27.9043 28.0119 28.8245 27.5071 31.47L27.3948 32.0569L26.8052 32.1439L12.6267 34.2243L10.4733 42.7651L10.3807 43.1272L32.8808 39.8987L35.1438 30.917L32.5384 31.3015L31.4041 31.4673L31.5865 30.3358C31.7426 29.3745 31.5608 28.7441 31.3001 28.379C31.0396 28.0139 30.7027 27.8583 30.2669 27.8736L30.2668 27.8735Z" fill="#FF7C40"/>
</svg>
